<svg width="363" height="253" viewBox="0 0 363 253" fill="none" xmlns="http://www.w3.org/2000/svg">
<g id="Frame 1">
<rect width="363" height="253" fill="white"/>
<g id="Hello">
<path d="M119.868 144.199L111.719 144.415C111.266 144.415 110.995 144.332 110.906 144.166C110.818 144.011 110.773 143.657 110.773 143.104C110.773 142.551 110.834 142.224 110.956 142.125C111.089 142.014 111.432 141.959 111.985 141.959H115.934C116.2 141.959 116.333 136.184 116.333 124.633V117.697C116.333 106.412 116.222 100.769 116.001 100.769H113.014C112.527 100.769 112.178 100.698 111.968 100.554C111.758 100.41 111.653 100.072 111.653 99.5414C111.653 99.0104 111.752 98.6729 111.952 98.5291C112.151 98.3853 112.505 98.3134 113.014 98.3134L119.336 98.5291L126.672 98.3134C127.125 98.3134 127.407 98.4019 127.518 98.5789C127.629 98.7559 127.684 99.1155 127.684 99.6576C127.684 100.189 127.612 100.509 127.468 100.62C127.324 100.72 126.97 100.769 126.406 100.769H122.656C122.434 100.769 122.324 103.74 122.324 109.681L122.39 118.643C122.39 119.151 122.423 119.45 122.49 119.539C122.556 119.627 122.794 119.671 123.203 119.671H148.013C148.422 119.671 148.66 119.638 148.727 119.572C148.793 119.494 148.826 119.251 148.826 118.842V110.561C148.826 108.271 148.771 106.069 148.66 103.956C148.55 101.832 148.428 100.769 148.295 100.769H144.412C143.969 100.769 143.665 100.698 143.499 100.554C143.333 100.399 143.25 100.056 143.25 99.5248C143.25 98.9938 143.311 98.6619 143.433 98.5291C143.565 98.3853 143.87 98.3134 144.345 98.3134L151.614 98.5291L158.219 98.3134C158.673 98.3134 158.955 98.4019 159.065 98.5789C159.176 98.7559 159.231 99.1155 159.231 99.6576C159.231 100.189 159.154 100.509 158.999 100.62C158.855 100.72 158.501 100.769 157.937 100.769H154.95C154.817 100.769 154.751 107.634 154.751 121.364C154.751 135.094 154.839 141.959 155.016 141.959H158.617C159.005 141.959 159.248 142.031 159.348 142.175C159.447 142.318 159.497 142.639 159.497 143.137C159.497 143.624 159.447 143.956 159.348 144.133C159.248 144.321 159.005 144.415 158.617 144.415L152.162 144.199L144.478 144.415C144.025 144.415 143.743 144.326 143.632 144.149C143.521 143.983 143.466 143.635 143.466 143.104C143.466 142.562 143.538 142.235 143.682 142.125C143.837 142.014 144.196 141.959 144.76 141.959H148.494C148.716 141.959 148.826 138.291 148.826 130.956V122.526C148.826 122.139 148.804 121.906 148.76 121.829C148.716 121.751 148.605 121.713 148.428 121.713H123.004C122.694 121.713 122.512 121.751 122.456 121.829C122.412 121.906 122.39 122.183 122.39 122.659C122.39 135.525 122.595 141.959 123.004 141.959H127.485C127.861 141.959 128.088 142.031 128.165 142.175C128.254 142.307 128.298 142.551 128.298 142.905C128.298 143.259 128.292 143.491 128.281 143.602C128.281 143.701 128.27 143.823 128.248 143.967C128.226 144.1 128.187 144.188 128.132 144.232C127.988 144.354 127.772 144.415 127.485 144.415L119.868 144.199Z" fill="black"/>
<path d="M184.39 128.915L169.222 128.566C169.089 128.898 169.023 129.778 169.023 131.205C169.023 132.632 169.299 134.054 169.852 135.47C170.405 136.886 171.136 138.048 172.043 138.955C173.979 140.869 176.214 141.826 178.747 141.826C181.834 141.826 184.644 140.504 187.178 137.86C187.476 137.561 187.664 137.412 187.742 137.412C187.819 137.412 188.057 137.589 188.456 137.943C188.865 138.286 189.07 138.501 189.07 138.59C189.07 138.678 188.887 138.955 188.522 139.42C188.168 139.873 187.626 140.432 186.896 141.096C186.176 141.749 185.352 142.385 184.423 143.004C182.188 144.487 179.892 145.228 177.536 145.228C175.19 145.228 173.177 144.885 171.495 144.199C169.814 143.524 168.42 142.578 167.313 141.361C166.218 140.133 165.377 138.678 164.791 136.997C164.215 135.304 163.928 133.445 163.928 131.421C163.928 129.396 164.271 127.493 164.957 125.712C165.643 123.931 166.589 122.393 167.794 121.099C170.417 118.288 173.791 116.883 177.918 116.883C181.27 116.883 183.859 118.001 185.684 120.236C187.399 122.338 188.256 124.888 188.256 127.886C188.256 128.572 186.967 128.915 184.39 128.915ZM181.635 126.708C182.653 126.708 183.162 126.625 183.162 126.459C183.162 123.206 182.155 120.949 180.141 119.688C179.168 119.08 178.155 118.775 177.104 118.775C176.064 118.775 175.063 119.03 174.101 119.539C173.149 120.048 172.342 120.695 171.678 121.48C170.262 123.173 169.487 124.904 169.354 126.675C169.354 126.896 169.559 127.007 169.968 127.007L181.635 126.708Z" fill="black"/>
<path d="M191.924 100.57C191.703 100.57 191.592 100.421 191.592 100.122C191.592 99.8125 191.631 99.5138 191.708 99.2261C191.786 98.9385 191.83 98.767 191.841 98.7117C191.863 98.6453 191.891 98.59 191.924 98.5457C191.957 98.5015 191.979 98.4683 191.99 98.4461C192.001 98.424 192.035 98.4074 192.09 98.3964C192.156 98.3742 192.201 98.3632 192.223 98.3632C192.333 98.33 193.783 98.2138 196.571 98.0147C199.37 97.8155 200.891 97.716 201.134 97.716C201.521 97.716 201.715 98.1198 201.715 98.9274L202.113 139.652C202.113 141.278 202.23 142.092 202.462 142.092H205.383C205.759 142.092 205.986 142.169 206.063 142.324C206.152 142.468 206.196 142.711 206.196 143.054C206.196 143.397 206.19 143.624 206.179 143.734C206.168 143.834 206.14 143.945 206.096 144.066C206.008 144.243 205.77 144.332 205.383 144.332L199.74 144.199L193.218 144.332C192.842 144.332 192.599 144.243 192.488 144.066C192.389 143.9 192.339 143.618 192.339 143.22C192.339 142.811 192.389 142.523 192.488 142.357C192.588 142.18 192.809 142.092 193.152 142.092H196.62C196.842 142.092 196.952 140.211 196.952 136.449C196.952 132.677 196.886 126.536 196.753 118.028C196.62 109.51 196.493 104.57 196.371 103.209C196.25 101.837 196.172 101.096 196.139 100.985C196.117 100.864 196.095 100.764 196.073 100.687C196.062 100.609 196.034 100.548 195.99 100.504C195.957 100.449 195.929 100.41 195.907 100.388C195.874 100.321 195.813 100.288 195.724 100.288H195.459L191.924 100.57Z" fill="black"/>
<path d="M209.382 100.57C209.161 100.57 209.05 100.421 209.05 100.122C209.05 99.8125 209.089 99.5138 209.166 99.2261C209.244 98.9385 209.288 98.767 209.299 98.7117C209.321 98.6453 209.349 98.59 209.382 98.5457C209.415 98.5015 209.437 98.4683 209.448 98.4461C209.46 98.424 209.493 98.4074 209.548 98.3964C209.614 98.3742 209.659 98.3632 209.681 98.3632C209.791 98.33 211.241 98.2138 214.029 98.0147C216.828 97.8155 218.349 97.716 218.592 97.716C218.98 97.716 219.173 98.1198 219.173 98.9274L219.572 139.652C219.572 141.278 219.688 142.092 219.92 142.092H222.841C223.217 142.092 223.444 142.169 223.521 142.324C223.61 142.468 223.654 142.711 223.654 143.054C223.654 143.397 223.648 143.624 223.637 143.734C223.626 143.834 223.599 143.945 223.554 144.066C223.466 144.243 223.228 144.332 222.841 144.332L217.198 144.199L210.677 144.332C210.3 144.332 210.057 144.243 209.946 144.066C209.847 143.9 209.797 143.618 209.797 143.22C209.797 142.811 209.847 142.523 209.946 142.357C210.046 142.18 210.267 142.092 210.61 142.092H214.079C214.3 142.092 214.41 140.211 214.41 136.449C214.41 132.677 214.344 126.536 214.211 118.028C214.079 109.51 213.951 104.57 213.83 103.209C213.708 101.837 213.63 101.096 213.597 100.985C213.575 100.864 213.553 100.764 213.531 100.687C213.52 100.609 213.492 100.548 213.448 100.504C213.415 100.449 213.387 100.41 213.365 100.388C213.332 100.321 213.271 100.288 213.182 100.288H212.917L209.382 100.57Z" fill="black"/>
<path d="M227.255 131.421C227.255 129.496 227.598 127.643 228.284 125.861C228.97 124.069 229.916 122.515 231.122 121.198C233.755 118.322 237.179 116.883 241.394 116.883C245.134 116.883 248.16 118.228 250.472 120.916C252.751 123.56 253.89 126.791 253.89 130.608C253.89 134.889 252.696 138.38 250.306 141.079C247.861 143.845 244.525 145.228 240.299 145.228C236.593 145.228 233.489 143.889 230.989 141.212C228.5 138.535 227.255 135.271 227.255 131.421ZM232.483 132.516C232.483 135.868 233.434 138.623 235.337 140.781C236.665 142.296 238.319 143.054 240.299 143.054C245.831 143.054 248.597 138.745 248.597 130.126C248.597 126.155 247.429 123.057 245.095 120.833C243.845 119.649 242.335 119.057 240.564 119.057C235.177 119.057 232.483 123.544 232.483 132.516Z" fill="black"/>
</g>
</g>
</svg>
